<svg xmlns="http://www.w3.org/2000/svg" xmlns:xlink="http://www.w3.org/1999/xlink" version="1.1" x="0px" y="0px" viewBox="0 0 30 37.5" xml:space="preserve"><g transform="translate(-330 -260)"><g xmlns="http://www.w3.org/2000/svg" xmlns:xlink="http://www.w3.org/1999/xlink"><path d="M354.458,275.603l3.406-0.195l-2.63-1.592l4.04-2.462l-4.903-1.186l3.156-2.391l-3.777,0.275l2.12-4.031l-5.161,3.02    l0.25-3.666l-2.293,2.791l-1.581-4.974l-2.582,5.358l-1.253-3.801l-0.492,3.985l-3.499-4.621l-0.055,5.953l-6.29-2.22l3.686,5.566    l-3.579-0.308l2.693,2.372l-4.989,1.674l5.262,2.922l-4.141,1.366l4.532,0.822l-4.638,4.388l6.813-1.459l-0.825,4.509l3.558-4.021    l1.642,5.129l2.849-5.444l1.802,3.685l1.254-3.701l4.647,4.518l-1.384-6.351l3.585,1.493l-1.508-3.593l5.079,0.189    L354.458,275.603z M353.5,277.25l-4.175,0.944l0.612,3.368l-4-2.563l-2.564,4.641l-1.255-3.921l-3.64,1.704l1.447-3.75    l-4.265-2.068l4.893-1.844l-2.678-4.042l4.093,1.04l0.026-2.887l2.441,2.877l2.173-3.966l1.431,3.882l3.209-2.041l-0.991,3.749    l3.679,0.189l-3.078,2.404L353.5,277.25z"/></g></g><text x="0" y="45" fill="#000000" font-size="5px" font-weight="bold" font-family="'Helvetica Neue', Helvetica, Arial-Unicode, Arial, Sans-serif">Created by Hea Poh Lin</text><text x="0" y="50" fill="#000000" font-size="5px" font-weight="bold" font-family="'Helvetica Neue', Helvetica, Arial-Unicode, Arial, Sans-serif">from the Noun Project</text></svg>