<svg xmlns="http://www.w3.org/2000/svg" viewBox="0 0 480 407.137">
   <!-- original image of ufo by Icongeek26 from the Noun Project -->
   <path fill="#fff"
      d="M239.959 145.185a12.6 12.6 0 01-9.148-3.911L229 139.448v13.2c4 .087 7.384.147 11 .147 3.616 0 7-.06 11-.147v-13.2l-1.82 1.883h-.092c-2.4 3-5.655 3.854-9.129 3.854zm18.267-73.083c-3.2 3.578-4.047 9.791-4.121 14.278 3.5-.123 8.459-.956 11.488-4.346 3.182-3.563 4.033-9.824 4.116-14.277-3.501.124-8.458.958-11.483 4.345z" />
   <path fill="#fff"
      d="M219 128.991l-19.79-20.781a55.952 55.952 0 01-13.782-51.461c4.107-17.866 16.435-32.2 32.974-38.347a62.182 62.182 0 0143.221 0c16.539 6.146 28.886 20.481 32.993 38.347a55.97 55.97 0 01-13.825 51.461L261 128.991v23.294a442.43 442.43 0 00114.008-20.4 135.046 135.046 0 00-270.018 0A442.5 442.5 0 00219 152.284zm-58.862-64.532a104.371 104.371 0 00-16.663 25.49 5.002 5.002 0 01-9.079-4.2 114.429 114.429 0 0118.259-27.928 5 5 0 017.483 6.634zm15.724-14.434c-1.342 1-2.676 2.044-3.965 3.1a5 5 0 01-6.353-7.723 110.481 110.481 0 014.348-3.4 5 5 0 115.97 8.021z" />
   <path fill="#fff"
      d="M284.83 58.99c-3.4-14.793-13.137-26.17-26.71-31.214a52.138 52.138 0 00-36.24 0c-13.573 5.044-23.309 16.421-26.71 31.214a46.022 46.022 0 0011.347 42.308l31.6 33.046a2.606 2.606 0 003.764 0l31.6-33.044a46.025 46.025 0 0011.349-42.31zm-58.837 37.4c-5.3 0-14.181-1.106-20.064-7.692-3.618-4.051-5.789-9.769-6.453-17a48.154 48.154 0 01.037-9.338 5 5 0 014.206-4.336c.644-.1 15.821-2.294 24.491 7.413 3.618 4.05 5.79 9.768 6.454 17a48.248 48.248 0 01-.037 9.338 5 5 0 01-4.206 4.336 31.451 31.451 0 01-4.428.278zm17.014 26.941h-6.014a5 5 0 010-10h6.014a5 5 0 010 10zm9.978-26.942a31.444 31.444 0 01-4.427-.28 5 5 0 01-4.206-4.336 48.2 48.2 0 01-.038-9.338c.665-7.227 2.836-12.945 6.455-17 8.672-9.707 23.848-7.511 24.492-7.413a5 5 0 014.206 4.336 48.252 48.252 0 01.037 9.338c-.664 7.228-2.836 12.945-6.454 17-5.884 6.587-14.763 7.693-20.065 7.693z" />
   <path fill="#fff"
      d="M209.266 67.757c.074 4.483.923 10.7 4.12 14.277 3.027 3.389 7.987 4.223 11.488 4.345-.074-4.483-.924-10.7-4.121-14.277-3.026-3.388-7.986-4.222-11.487-4.345zM1.986 346.613a3.2 3.2 0 005.294 3.518l108.19-125.655a476.153 476.153 0 01-47.588-10.145zm237.407 60.524a6.445 6.445 0 006.407-5.506l27.972-183.762a51.97 51.97 0 00-67.56.013l26.767 183.708a6.517 6.517 0 006.414 5.547z" />
   <path fill="#fff"
      d="M196.832 222.861l-.9-6.182a5 5 0 011.511-4.354 61.973 61.973 0 0185.114 0 5 5 0 011.507 4.386l-.936 6.152C406.5 216.731 480 186.509 480 160.343c0-18.951-37.887-38.542-97.248-50.64a150.143 150.143 0 012.222 25.8 5 5 0 01-3.448 4.753A455.082 455.082 0 01240 162.79a455.07 455.07 0 01-141.525-22.529 5 5 0 01-3.449-4.754 150.155 150.155 0 012.222-25.8C37.889 121.801 0 141.394 0 160.343c0 26.175 73.482 56.381 196.832 62.518zm-87.5-67.181a15.226 15.226 0 0115.209 15.209 5 5 0 01-10 0 5.209 5.209 0 10-10.417 0 5 5 0 01-10 0 15.226 15.226 0 0115.209-15.209zm-38.791 0a15.226 15.226 0 0115.208 15.209 5 5 0 01-10 0 5.209 5.209 0 10-10.417 0 5 5 0 01-10 0 15.226 15.226 0 0115.21-15.209zM476.43 350.975a3.2 3.2 0 001.584-4.363l-65.898-132.281a475.855 475.855 0 01-47.584 10.142L472.72 350.131a3.189 3.189 0 003.71.844z" />
</svg>