<svg xmlns="http://www.w3.org/2000/svg" data-name="Layer 1" viewBox="0 0 512 640" x="0px" y="0px"><title>UFO</title><path d="M255.959,221.854a12.6,12.6,0,0,1-9.148-3.911L245,216.117v13.2c4,.087,7.384.147,11,.147s7-.06,11-.147v-13.2L265.18,218h-.092C262.688,221,259.433,221.854,255.959,221.854Z"/><path d="M274.226,148.771c-3.2,3.578-4.047,9.791-4.121,14.278,3.5-.123,8.459-.956,11.488-4.346,3.182-3.563,4.033-9.824,4.116-14.277C282.208,144.55,277.251,145.384,274.226,148.771Z"/><path d="M235,205.66l-19.79-20.781a55.952,55.952,0,0,1-13.782-51.461c4.107-17.866,16.435-32.2,32.974-38.347a62.182,62.182,0,0,1,43.221,0c16.539,6.146,28.886,20.481,32.993,38.347a55.97,55.97,0,0,1-13.825,51.461L277,205.66v23.294a442.43,442.43,0,0,0,114.008-20.4,135.046,135.046,0,0,0-270.018,0A442.5,442.5,0,0,0,235,228.953Zm-58.862-64.532a104.371,104.371,0,0,0-16.663,25.49,5,5,0,0,1-9.079-4.2,114.429,114.429,0,0,1,18.259-27.928,5,5,0,0,1,7.483,6.634Zm15.724-14.434c-1.342,1-2.676,2.044-3.965,3.1a5,5,0,0,1-6.353-7.723c1.412-1.162,2.875-2.307,4.348-3.4a5,5,0,1,1,5.97,8.021Z"/><path d="M300.83,135.659c-3.4-14.793-13.137-26.17-26.71-31.214a52.138,52.138,0,0,0-36.24,0c-13.573,5.044-23.309,16.421-26.71,31.214a46.022,46.022,0,0,0,11.347,42.308l31.6,33.046a2.606,2.606,0,0,0,3.764,0l31.6-33.044A46.025,46.025,0,0,0,300.83,135.659Zm-58.837,37.4c-5.3,0-14.181-1.106-20.064-7.692-3.618-4.051-5.789-9.769-6.453-17a48.154,48.154,0,0,1,.037-9.338,5,5,0,0,1,4.206-4.336c.644-.1,15.821-2.294,24.491,7.413,3.618,4.05,5.79,9.768,6.454,17a48.248,48.248,0,0,1-.037,9.338,5,5,0,0,1-4.206,4.336A31.451,31.451,0,0,1,241.993,173.058ZM259.007,200h-6.014a5,5,0,0,1,0-10h6.014a5,5,0,0,1,0,10Zm9.978-26.942a31.444,31.444,0,0,1-4.427-.28,5,5,0,0,1-4.206-4.336,48.2,48.2,0,0,1-.038-9.338c.665-7.227,2.836-12.945,6.455-17,8.672-9.707,23.848-7.511,24.492-7.413a5,5,0,0,1,4.206,4.336,48.252,48.252,0,0,1,.037,9.338c-.664,7.228-2.836,12.945-6.454,17C283.166,171.952,274.287,173.058,268.985,173.058Z"/><path d="M225.266,144.426c.074,4.483.923,10.7,4.12,14.277,3.027,3.389,7.987,4.223,11.488,4.345-.074-4.483-.924-10.7-4.121-14.277C233.727,145.383,228.767,144.549,225.266,144.426Z"/><path d="M17.986,423.282A3.2,3.2,0,0,0,23.28,426.8L131.47,301.145A476.153,476.153,0,0,1,83.882,291Z"/><path d="M255.393,483.806A6.445,6.445,0,0,0,261.8,478.3l27.972-183.762a51.97,51.97,0,0,0-67.56.013l26.767,183.708A6.517,6.517,0,0,0,255.393,483.806Z"/><path d="M212.832,299.53l-.9-6.182a5,5,0,0,1,1.511-4.354,61.973,61.973,0,0,1,85.114,0,5,5,0,0,1,1.507,4.386l-.936,6.152C422.5,293.4,496,263.178,496,237.012c0-18.951-37.887-38.542-97.248-50.64a150.143,150.143,0,0,1,2.222,25.8,5,5,0,0,1-3.448,4.753A455.082,455.082,0,0,1,256,239.459,455.07,455.07,0,0,1,114.475,216.93a5,5,0,0,1-3.449-4.754,150.155,150.155,0,0,1,2.222-25.8C53.889,198.47,16,218.063,16,237.012,16,263.187,89.482,293.393,212.832,299.53Zm-87.5-67.181a15.226,15.226,0,0,1,15.209,15.209,5,5,0,0,1-10,0,5.209,5.209,0,1,0-10.417,0,5,5,0,0,1-10,0A15.226,15.226,0,0,1,125.333,232.349Zm-38.791,0a15.226,15.226,0,0,1,15.208,15.209,5,5,0,0,1-10,0,5.209,5.209,0,1,0-10.417,0,5,5,0,0,1-10,0A15.226,15.226,0,0,1,86.542,232.349Z"/><path d="M492.43,427.644a3.2,3.2,0,0,0,1.584-4.363L428.116,291a475.855,475.855,0,0,1-47.584,10.142L488.72,426.8A3.189,3.189,0,0,0,492.43,427.644Z"/><path d="M354.655,75.584a27.323,27.323,0,0,1,16.776,17.649,5,5,0,0,0,4.646,3.543l.138,0a5,5,0,0,0,4.7-3.286,27.437,27.437,0,0,1,17.731-16.757,5,5,0,0,0,.249-9.487A27.32,27.32,0,0,1,382.114,49.6a5,5,0,0,0-9.48-.258A27.436,27.436,0,0,1,354.9,66.1a5,5,0,0,0-.249,9.486Z"/><path d="M357.938,420.594a5,5,0,0,0-9.389,1.346A27.437,27.437,0,0,1,333.9,441.45a5,5,0,0,0,1.357,9.392,27.327,27.327,0,0,1,19.515,14.563,5,5,0,0,0,9.388-1.346,27.433,27.433,0,0,1,14.646-19.51,5,5,0,0,0-1.357-9.392A27.323,27.323,0,0,1,357.938,420.594Z"/><path d="M43.066,106.48a5,5,0,0,0,3.3,4.833A27.329,27.329,0,0,1,63.14,128.962a5,5,0,0,0,4.647,3.543c.046,0,.091,0,.137,0a5,5,0,0,0,4.7-3.286,27.434,27.434,0,0,1,17.73-16.757,5,5,0,0,0,.249-9.487A27.324,27.324,0,0,1,73.822,85.328a5,5,0,0,0-9.48-.258,27.434,27.434,0,0,1-17.73,16.757A5,5,0,0,0,43.066,106.48Z"/><path d="M45.708,53.5a10.1,10.1,0,1,0-10.1-10.1A10.115,10.115,0,0,0,45.708,53.5Z"/><path d="M36.521,76.974a6.021,6.021,0,1,0-6.021-6.02A6.027,6.027,0,0,0,36.521,76.974Z"/><path d="M133.883,408.754a10.133,10.133,0,0,0-11.1,16.956A10.4,10.4,0,0,0,137,422.731v0A10.18,10.18,0,0,0,133.883,408.754Z"/><path d="M143.494,389.4a6.027,6.027,0,0,0,8.326-1.77l0-.007a6.021,6.021,0,1,0-8.33,1.777Z"/><path d="M377.64,413.9a6.311,6.311,0,0,0,1.487-.179,7.193,7.193,0,0,0,4.873-3.5v0c2-1.807,1.781-3.961,1.332-6.067a7.719,7.719,0,0,0-3.29-5.083,8.062,8.062,0,1,0-4.4,14.829Z"/><path d="M390.965,380.319a6.021,6.021,0,1,0-3.289,11.074,6.053,6.053,0,0,0,1.266-.134,6.021,6.021,0,0,0,2.023-10.94Z"/><path d="M481.917,47.49a10.1,10.1,0,1,0-5.264-5.665A10.079,10.079,0,0,0,481.917,47.49Z"/><path d="M472.973,88.678a6.021,6.021,0,1,0,5.013-10.948l0,0a6.021,6.021,0,0,0-5.01,10.95Z"/><path d="M442.556,171.355c5.827,1.527,11.445,3.152,16.7,4.831,6.824,2.181,13.195,4.5,18.937,6.9a5,5,0,0,0,3.856-9.227c-6.007-2.51-12.651-4.933-19.749-7.2-5.42-1.732-11.209-3.408-17.207-4.979a5,5,0,1,0-2.535,9.673Z"/><path d="M417.094,165.533q2.307.459,4.574.932a5,5,0,0,0,2.045-9.789q-2.313-.483-4.668-.951a5,5,0,1,0-1.951,9.808Z"/><text x="0" y="527" fill="#000000" font-size="5px" font-weight="bold" font-family="'Helvetica Neue', Helvetica, Arial-Unicode, Arial, Sans-serif">Created by Icongeek26</text><text x="0" y="532" fill="#000000" font-size="5px" font-weight="bold" font-family="'Helvetica Neue', Helvetica, Arial-Unicode, Arial, Sans-serif">from the Noun Project</text></svg>