<svg width="32.835" height="29.197" viewBox="0 0 8.688 7.725" xmlns="http://www.w3.org/2000/svg"><g stroke-width=".07"><path d="M1.06 6.36q.249.424.83.767 1.018.598 2.457.598t2.457-.598q.581-.343.83-.767l-.218.056q-1.27.322-3.07.322-1.798 0-3.072-.322-.116-.028-.214-.056m3.287-3.192q-.462 0-.893.045-1.235.133-2.18.644-.109.056-.203.12.004.041-.01.097l-.018.056q-.063.175-.228.34-.164.168-.34.227-.17.063-.251-.014l-.007-.007-.018-.017q-.063.105-.105.217.021.02.046.038.217.179.805.326.154.035.329.07 1.274.259 3.073.259t3.07-.26q.175-.034.329-.073.588-.143.812-.322l.042-.038q-.042-.112-.105-.217l-.018.017-.01.007q-.08.077-.249.014-.175-.06-.343-.227-.164-.165-.227-.34-.011-.028-.014-.052-.014-.056-.011-.102-.098-.06-.206-.119-.946-.51-2.181-.644-.427-.045-.89-.045z" fill="#6fc4a9"/><path d="M1.27 6.13q-.193-.049-.354-.098.021.077.056.158.035.084.084.164.098.028.214.056 1.274.322 3.073.322 1.8 0 3.07-.322l.217-.056q.045-.084.08-.164.035-.081.056-.158-.16.049-.353.098-1.27.322-3.07.322-1.799 0-3.073-.322z" fill="#5caa91"/><path d="M1.27 5.31q-.175-.035-.329-.07-.588-.147-.805-.326Q.11 4.897.09 4.876q-.031.08-.052.164-.035.147-.039.305v.014q0 .385.917.679.161.049.354.098 1.274.322 3.073.322 1.8 0 3.07-.322.192-.049.353-.098.921-.294.921-.679v-.014q-.004-.158-.042-.308-.021-.08-.049-.161-.021.021-.042.038-.224.179-.812.322-.154.039-.33.074-1.27.259-3.069.259T1.27 5.31z" fill="#67b69d"/><path d="M5.23 3.07q-.427-.046-.89-.046-.461 0-.892.046-1.235.133-2.18.644-.137.074-.26.15-.164-.16-.395-.16-.238 0-.402.164-.168.168-.168.403 0 .22.15.385l.018.017.007.007q.08.077.252.014.175-.06.34-.227.164-.165.227-.34l.017-.056q.014-.056.01-.098.095-.063.204-.119.945-.511 2.18-.644.43-.045.893-.045.462 0 .889.045 1.236.133 2.18.644.11.06.207.12-.004.045.01.1.005.025.015.053.063.175.227.34.168.168.343.227.168.063.249-.014l.01-.007.018-.017q.147-.165.147-.385 0-.235-.165-.403-.168-.164-.402-.164-.235 0-.4.16-.122-.076-.258-.15-.945-.511-2.181-.644z" fill="#89d9c0"/></g><path d="M1.961 3.997q0 .357.714.61t1.726.251q1.008 0 1.722-.252.717-.252.717-.609 0-.241-.717-.416-.714-.172-1.722-.172-1.012 0-1.726.172-.714.175-.714.416z" fill="#474f4c"/><path d="M4.4.136q-.633 0-1.084.452-.434.434-.448 1.047v2.373q.003.21.448.36.451.154 1.085.154t1.081-.154q.448-.15.452-.36V1.635Q5.92 1.022 5.482.588 5.034.136 4.401.136z" fill="#6fc4a9"/><path d="M2.868 1.53v.105q.014-.613.448-1.047Q3.767.136 4.4.136t1.081.452q.438.434.452 1.047v-.106q0-.633-.452-1.081-.448-.452-1.081-.452T3.316.448q-.448.448-.448 1.081z" fill="#89d9c0"/><path d="M4.856 2.856q-.028-.014-.056 0-.028.01-.035.039-.032.066-.095.119-.112.084-.27.084-.164 0-.276-.084-.063-.05-.084-.116-.007-.028-.031-.038-.028-.014-.063-.007-.028.007-.039.035-.014.024-.007.056.028.101.137.178.15.12.364.12.21 0 .357-.12.098-.077.14-.175.01-.028 0-.056-.018-.028-.042-.035m.423-.76q-.101-.104-.245-.104-.15 0-.255.105-.102.108-.102.248 0 .144.102.245.105.105.255.105.144 0 .245-.105.109-.101.109-.245 0-.14-.109-.248m-1.505-.105q-.15 0-.259.105-.098.108-.098.248 0 .144.098.245.109.105.26.105.14 0 .244-.105.105-.101.105-.245 0-.14-.105-.248-.105-.105-.245-.105z" fill="#347e67"/><path d="M5.234 3.07q-.091.003-.154.038t-.056.08v.592q0 .26-.182.441-.186.186-.441.186-.26 0-.441-.186-.186-.182-.186-.44v-.578q0-.007.004-.014.003-.046-.06-.08t-.154-.04q-.09 0-.16.029-.067.031-.07.077-.004.014-.004.028v.577q0 .445.315.76.311.311.756.311.44 0 .752-.311l.004-.004q.311-.311.311-.756v-.577-.028q-.003-.046-.073-.077-.07-.028-.161-.028z" fill="#5a6662"/><g><path d="M3.54 3.469q-.028 0-.053.003-.056.004-.108.021-.357.07-.602.032v.332q.01.277.535.515l.042.02q.084.032.186.032.196 0 .336-.14.143-.14.143-.336 0-.2-.143-.34-.14-.14-.336-.14m1.722 0q-.2 0-.34.14t-.14.34q0 .196.14.336t.34.14q.098 0 .182-.031l.042-.021q.525-.238.539-.515v-.332q-.249.038-.606-.032-.052-.017-.105-.02-.028-.004-.052-.004z" fill="#7dcab1"/></g></svg>